<svg xmlns="http://www.w3.org/2000/svg" style="display: none;">
  <symbol id="icon-search" viewBox="0 0 24 24">
    <path d="M10.564 16.8877C11.9502 16.8877 13.2285 16.4395 14.2744 15.6924L18.209 19.627C18.3916 19.8096 18.6323 19.9009 18.8896 19.9009C19.4292 19.9009 19.811 19.4858 19.811 18.9546C19.811 18.7056 19.728 18.4648 19.5454 18.2905L15.6357 14.3726C16.4575 13.2935 16.9473 11.957 16.9473 10.5044C16.9473 6.99316 14.0752 4.12109 10.564 4.12109C7.06104 4.12109 4.18066 6.98486 4.18066 10.5044C4.18066 14.0156 7.05273 16.8877 10.564 16.8877ZM10.564 15.5098C7.82471 15.5098 5.55859 13.2437 5.55859 10.5044C5.55859 7.76514 7.82471 5.49902 10.564 5.49902C13.3032 5.49902 15.5693 7.76514 15.5693 10.5044C15.5693 13.2437 13.3032 15.5098 10.564 15.5098Z"/>
  </symbol>
  <symbol id="icon-help" viewBox="0 0 24 24">
  <path fill-rule="evenodd" clip-rule="evenodd" d="M21 12C21 16.9706 16.9706 21 12 21C7.02944 21 3 16.9706 3 12C3 7.02944 7.02944 3 12 3C16.9706 3 21 7.02944 21 12ZM12 19C11.448 19 11 18.552 11 18C11 17.448 11.448 17 12 17C12.552 17 13 17.448 13 18C13 18.552 12.552 19 12 19ZM12.9389 6.10713C10.3214 5.51108 7.99999 7.48383 8 10C8 10.0297 8.00385 10.0882 8.00385 10.0882C8.04856 10.599 8.47773 11 9 11C9.54291 11 9.98522 10.5666 10.0004 10.0271C9.99935 8.92313 10.8959 8.00013 11.9999 8.00013C13.1029 8.00013 13.9999 8.89713 13.9999 10.0001C13.9999 11.1021 13.1029 12.0001 11.9999 12.0001C11.4599 12.0001 11.0179 12.4411 11.0099 12.9871V15.0001C11.0099 15.5521 11.4579 16.0001 12.0099 16.0001C12.5629 16.0001 13.0099 15.5521 13.0099 15.0001V14.2191C13.0099 14.0021 13.1549 13.8201 13.3589 13.7471C15.1719 13.0911 16.3809 11.1771 15.8899 9.04813C15.5569 7.60513 14.3829 6.43513 12.9389 6.10713Z"/>
  </symbol>
  <symbol id="icon-logout" viewBox="0 0 24 24">
    <path d="M3 5C3 3.89543 3.89543 3 5 3H12V5H5V19H12V21H5C3.89543 21 3 20.1046 3 19V5ZM16.3037 8.30511C15.8988 8.71367 15.8988 9.37509 16.3037 9.7826L17.5097 11H7.97642C7.43743 11 7 11.4488 7 12.0005C7 12.5522 7.43743 13 7.97642 13H17.5095L16.3037 14.2171C15.8988 14.6236 15.8988 15.2861 16.3037 15.6936C16.7076 16.1021 17.3631 16.1021 17.7681 15.6936L20.6979 12.7386C21.1007 12.3301 21.1007 11.6697 20.6979 11.2611L17.7681 8.30511C17.5651 8.10136 17.3 8 17.0348 8C16.7708 8 16.5046 8.10136 16.3037 8.30511Z"/>
  </symbol>
  <symbol id="icon-chevron-left" viewBox="0 0 24 24">
    <path d="M6.88672 12.0068C6.88672 12.2144 6.96143 12.397 7.11914 12.5547L13.7017 18.9878C13.8428 19.1372 14.0254 19.2119 14.2412 19.2119C14.6729 19.2119 15.0049 18.8882 15.0049 18.4565C15.0049 18.2407 14.9136 18.0581 14.7808 17.917L8.73779 12.0068L14.7808 6.09668C14.9136 5.95557 15.0049 5.76465 15.0049 5.55713C15.0049 5.12549 14.6729 4.80176 14.2412 4.80176C14.0254 4.80176 13.8428 4.87646 13.7017 5.01758L7.11914 11.459C6.96143 11.6084 6.88672 11.7993 6.88672 12.0068Z"/>
  </symbol>
  <symbol id="icon-chevron-right" viewBox="0 0 24 24">
    <path d="M17.1216 12.0068C17.1216 11.7993 17.0386 11.6084 16.8809 11.459L10.3066 5.01758C10.1572 4.87646 9.97461 4.80176 9.75879 4.80176C9.33545 4.80176 9.00342 5.12549 9.00342 5.55713C9.00342 5.76465 9.08643 5.95557 9.21924 6.09668L15.2622 12.0068L9.21924 17.917C9.08643 18.0581 9.00342 18.2407 9.00342 18.4565C9.00342 18.8882 9.33545 19.2119 9.75879 19.2119C9.97461 19.2119 10.1572 19.1372 10.3066 18.9878L16.8809 12.5547C17.0386 12.397 17.1216 12.2144 17.1216 12.0068Z"/>
  </symbol>
  <symbol id="icon-arrow-left" viewBox="0 0 24 24">
    <path d="M10.297 4.2915L3.298 11.2905C3.296 11.2915 3.294 11.2925 3.291 11.2945C3.097 11.4885 3 11.7455 3 12.0025C3 12.2595 3.097 12.5165 3.291 12.7115C3.294 12.7125 3.297 12.7135 3.299 12.7155L10.294 19.7105C10.683 20.1005 11.319 20.1005 11.708 19.7105C12.097 19.3225 12.097 18.6855 11.708 18.2965L6.414 13.0025H20C20.55 13.0025 21 12.5525 21 12.0025C21 11.4535 20.55 11.0035 20 11.0035H6.414L11.711 5.7055C12.1 5.3165 12.1 4.6805 11.711 4.2915C11.516 4.0975 11.26 4.0005 11.003 4.0005C10.747 4.0005 10.49 4.0975 10.297 4.2915Z"/>
  </symbol>
  <symbol id="icon-settings" viewBox="0 0 24 24">
    <path d="M11.2363 20.6812H12.7637C13.1953 20.6812 13.5107 20.4238 13.6021 20.0005L14.0337 18.1743C14.3574 18.0664 14.6729 17.9419 14.9468 17.8091L16.5488 18.7886C16.9058 19.0127 17.3125 18.9795 17.6113 18.6807L18.6821 17.6182C18.981 17.3193 19.0225 16.8877 18.7817 16.5308L17.8022 14.9453C17.9434 14.6548 18.0679 14.356 18.1592 14.0571L20.002 13.6172C20.4253 13.5259 20.6743 13.2104 20.6743 12.7788V11.2764C20.6743 10.853 20.4253 10.5376 20.002 10.4463L18.1758 10.0063C18.0679 9.66602 17.9351 9.35889 17.8188 9.10156L18.7983 7.49121C19.0308 7.13428 19.0059 6.72754 18.6987 6.42871L17.6113 5.35791C17.3042 5.07568 16.939 5.02588 16.5737 5.2334L14.9468 6.23779C14.6812 6.09668 14.374 5.97217 14.0337 5.86426L13.6021 4.01318C13.5107 3.58984 13.1953 3.33252 12.7637 3.33252H11.2363C10.8047 3.33252 10.4893 3.58984 10.3896 4.01318L9.95801 5.84766C9.63428 5.95557 9.31885 6.08008 9.03662 6.22949L7.42627 5.2334C7.06104 5.02588 6.6875 5.06738 6.38037 5.35791L5.30127 6.42871C4.99414 6.72754 4.96094 7.13428 5.20166 7.49121L6.17285 9.10156C6.06494 9.35889 5.93213 9.66602 5.82422 10.0063L3.99805 10.4463C3.57471 10.5376 3.32568 10.853 3.32568 11.2764V12.7788C3.32568 13.2104 3.57471 13.5259 3.99805 13.6172L5.84082 14.0571C5.93213 14.356 6.05664 14.6548 6.18945 14.9453L5.21826 16.5308C4.96924 16.8877 5.01904 17.3193 5.31787 17.6182L6.38037 18.6807C6.6792 18.9795 7.09424 19.0127 7.45117 18.7886L9.04492 17.8091C9.32715 17.9419 9.63428 18.0664 9.95801 18.1743L10.3896 20.0005C10.4893 20.4238 10.8047 20.6812 11.2363 20.6812ZM12 14.937C10.3896 14.937 9.06982 13.6089 9.06982 11.9985C9.06982 10.3965 10.3896 9.07666 12 9.07666C13.6104 9.07666 14.9302 10.3965 14.9302 11.9985C14.9302 13.6089 13.6104 14.937 12 14.937Z"/>
  </symbol>
  <symbol id="icon-info" viewBox="0 0 24 24">
    <path d="M12 2C6.47667 2 2 6.47667 2 12C2 17.5233 6.47667 22 12 22C17.5233 22 22 17.5233 22 12C22 6.47667 17.5233 2 12 2ZM12 20C7.58124 20 4 16.4188 4 12C4 7.58124 7.58124 4 12 4C16.4188 4 20 7.58124 20 12C20 16.4188 16.4188 20 12 20ZM11 11C11 10.4477 11.4477 10 12 10C12.5523 10 13 10.4477 13 11V16C13 16.5523 12.5523 17 12 17C11.4477 17 11 16.5523 11 16V11ZM12 9C12.5523 9 13 8.55228 13 8C13 7.44772 12.5523 7 12 7C11.4477 7 11 7.44772 11 8C11 8.55228 11.4477 9 12 9Z"/>
  </symbol>
  <symbol id="icon-shield-on" viewBox="0 0 24 24">
    <path d="M12 20.3906C12.1328 20.3906 12.3403 20.3408 12.5479 20.2329C17.271 17.7593 18.79 16.5225 18.79 13.5425V7.28369C18.79 6.42871 18.4248 6.15479 17.7275 5.86426C16.7563 5.46582 13.6519 4.33691 12.689 4.00488C12.4648 3.93018 12.2324 3.88867 12 3.88867C11.7676 3.88867 11.5352 3.93848 11.3193 4.00488C10.3481 4.32031 7.24365 5.47412 6.27246 5.86426C5.5835 6.14648 5.20996 6.42871 5.20996 7.28369V13.5425C5.20996 16.5225 6.81201 17.6182 11.4521 20.2329C11.668 20.3491 11.8672 20.3906 12 20.3906Z"/>
  </symbol>
  <symbol id="icon-clear" viewBox="0 0 24 24">
    <path d="M12 20.4736C16.6318 20.4736 20.4668 16.6304 20.4668 12.0068C20.4668 7.375 16.6235 3.54004 11.9917 3.54004C7.36816 3.54004 3.5332 7.375 3.5332 12.0068C3.5332 16.6304 7.37646 20.4736 12 20.4736ZM9.06982 15.626C8.69629 15.626 8.38916 15.3105 8.38916 14.9287C8.38916 14.7461 8.46387 14.5801 8.58838 14.4473L11.0205 12.0151L8.58838 9.58301C8.46387 9.4502 8.38916 9.28418 8.38916 9.10156C8.38916 8.71973 8.69629 8.4209 9.06982 8.4209C9.26904 8.4209 9.42676 8.4873 9.55127 8.62012L11.9917 11.0522L14.457 8.61182C14.5981 8.4707 14.7476 8.4043 14.9302 8.4043C15.3037 8.4043 15.6108 8.71143 15.6108 9.08496C15.6108 9.27588 15.5527 9.42529 15.4116 9.57471L12.9712 12.0151L15.4033 14.439C15.5361 14.5801 15.6025 14.7378 15.6025 14.9287C15.6025 15.3105 15.2954 15.626 14.9136 15.626C14.7227 15.626 14.5566 15.543 14.4238 15.4185L11.9917 12.9863L9.57617 15.4185C9.44336 15.5513 9.26904 15.626 9.06982 15.626Z"/>
  </symbol>
  <symbol id="icon-error" viewBox="0 0 24 24">
    <path d="M5.47559 19.8511H18.5161C19.7612 19.8511 20.5415 18.9546 20.5415 17.8257C20.5415 17.4854 20.4585 17.145 20.2759 16.8296L13.7432 5.16699C13.3696 4.49463 12.6807 4.1377 12 4.1377C11.311 4.1377 10.6221 4.49463 10.2485 5.16699L3.72412 16.8379C3.5498 17.1533 3.4502 17.4854 3.4502 17.8257C3.4502 18.9546 4.23047 19.8511 5.47559 19.8511ZM12 14.3062C11.5684 14.3062 11.3359 14.0571 11.3276 13.6172L11.2114 9.10156C11.2031 8.66162 11.5269 8.34619 11.9917 8.34619C12.4482 8.34619 12.7886 8.66992 12.7803 9.10986L12.6641 13.6172C12.6558 14.0654 12.415 14.3062 12 14.3062ZM12 17.0869C11.5103 17.0869 11.0786 16.6885 11.0786 16.1987C11.0786 15.7007 11.502 15.3022 12 15.3022C12.5063 15.3022 12.9297 15.6924 12.9297 16.1987C12.9297 16.6968 12.498 17.0869 12 17.0869Z"/>
  </symbol>
  <symbol id="icon-users" viewBox="0 0 24 24">
    <path d="M11 6C11 7.65685 9.65685 9 8 9C6.34315 9 5 7.65685 5 6C5 4.34315 6.34315 3 8 3C9.65685 3 11 4.34315 11 6ZM16 12C17.6569 12 19 10.6569 19 9C19 7.34315 17.6569 6 16 6C14.3431 6 13 7.34315 13 9C13 10.6569 14.3431 12 16 12ZM11 10.0003C12.1024 10.0003 12.9957 10.885 13 12.0003H12.9972C11.3416 12.0003 10 13.346 10 15.006V17.8132C7.05441 18.3476 3 17.7503 3 15.8293V12.0033C3 10.8973 3.887 10.0003 5 10.0003H11ZM13 13C11.8954 13 11 13.8945 11 14.9991V18.7299C11 21.7567 21 21.7567 21 18.7299V14.999C21 13.8944 20.1046 13 19 13H13Z" />
  </symbol>
  <symbol id="icon-shield-off" viewBox="0 0 24 24">
    <path d="M12 20.6147C12.1328 20.6147 12.3486 20.5649 12.5562 20.4487C17.2793 17.8008 18.8979 16.6802 18.8979 13.6504V7.30029C18.8979 6.42871 18.5244 6.15479 17.8188 5.85596C16.8394 5.44922 13.6768 4.31201 12.6973 3.97168C12.4731 3.89697 12.2324 3.84717 12 3.84717C11.7676 3.84717 11.5269 3.91357 11.311 3.97168C10.3315 4.25391 7.16064 5.45752 6.18115 5.85596C5.48389 6.14648 5.10205 6.42871 5.10205 7.30029V13.6504C5.10205 16.6802 6.729 17.7925 11.4438 20.4487C11.6597 20.5649 11.8672 20.6147 12 20.6147ZM12 19.1123C11.8672 19.1123 11.7344 19.0625 11.4854 18.9131C7.65039 16.5889 6.42188 15.9082 6.42188 13.3433V7.55762C6.42188 7.27539 6.47168 7.16748 6.7041 7.07617C7.96582 6.57812 10.4146 5.75635 11.668 5.2583C11.8008 5.2002 11.9087 5.18359 12 5.18359C12.0913 5.18359 12.1992 5.2085 12.332 5.2583C13.5854 5.75635 16.0176 6.63623 17.3042 7.07617C17.5283 7.15918 17.5781 7.27539 17.5781 7.55762V13.3433C17.5781 15.9082 16.3496 16.5806 12.5146 18.9131C12.2739 19.0625 12.1328 19.1123 12 19.1123Z"/>
  </symbol>
  <symbol id="icon-tasks" viewBox="0 0 24 24">
    <path d="M20.1348 16.2734L16.25 12.3887C15.4531 11.625 14.3242 11.459 13.3945 11.9238L9.875 8.4043V6.3125L5.625 3.125L3.5 5.25L6.6875 9.5H8.74609L12.2656 13.0527C11.834 13.9824 11.9668 15.1113 12.7305 15.875L16.6152 19.793C17.1133 20.2578 17.877 20.2578 18.375 19.793L20.1348 18.0332C20.5996 17.5352 20.5996 16.7715 20.1348 16.2734ZM14.4902 10.5957C15.4531 10.5957 16.3164 10.9609 16.9805 11.625L17.6445 12.2891C18.1426 12.0566 18.6406 11.7246 19.0723 11.293C20.3008 10.0645 20.7324 8.33789 20.334 6.77734C20.2676 6.47852 19.9023 6.37891 19.6699 6.57812L17.2129 9.06836L14.9551 8.66992L14.5898 6.41211L17.0469 3.95508C17.2793 3.72266 17.1465 3.35742 16.8477 3.29102C15.2871 2.89258 13.5605 3.32422 12.332 4.55273C11.3691 5.48242 10.9375 6.74414 10.9375 7.97266L13.6934 10.6953C13.959 10.6289 14.2246 10.5957 14.4902 10.5957ZM11.0371 13.3184L9.17773 11.459L4.09766 16.5059C3.26758 17.3359 3.26758 18.6973 4.09766 19.5273C4.92773 20.3574 6.28906 20.3574 7.11914 19.5273L11.2031 15.4102C10.9707 14.7461 10.8711 14.0488 11.0371 13.3184ZM5.625 18.7969C5.16016 18.7969 4.82812 18.4648 4.82812 18C4.82812 17.5684 5.16016 17.2031 5.625 17.2031C6.05664 17.2031 6.42188 17.5684 6.42188 18C6.42188 18.4648 6.05664 18.7969 5.625 18.7969Z"/>
  </symbol>
  <symbol id="icon-documents" viewBox="0 0 24 24">
    <path d="M19 19.0002V10.0052H21V19.0002C21 20.1042 20.105 21.0002 19 21.0002H9C7.895 21.0002 7 20.1042 7 19.0002V5.00018C7 3.89518 7.895 3.00018 9 3.00018H14.275C14.744 3.00018 15.197 3.16418 15.557 3.46418L20.631 7.70018C20.858 7.89018 20.99 8.17118 20.99 8.46818V8.98918H16.49C15.661 8.98918 14.99 8.31818 14.99 7.48918V5.00018H9V19.0002H19ZM5 17H6V19H5C3.895 19 3 18.105 3 17V6.99998C3 5.89498 3.895 4.99998 5 4.99998H6V6.99998H5V17Z"/>
  </symbol>
  <symbol id="icon-reports" viewBox="0 0 24 24">
    <path d="M21 17H4.99509C4.44816 17 4 16.5484 4 15.9915V6C4 5.44772 3.55228 5 3 5C2.44772 5 2 5.44772 2 6V15.9915C2 17.6496 3.34015 19 4.99509 19H21C21.5523 19 22 18.5523 22 18C22 17.4477 21.5523 17 21 17ZM18 10.4142V12C18 12.5523 18.4477 13 19 13C19.5523 13 20 12.5523 20 12V8C20 7.44772 19.5523 7 19 7H15C14.4477 7 14 7.44772 14 8C14 8.55228 14.4477 9 15 9H16.5858L14 11.5858L11.7071 9.29289C11.3166 8.90237 10.6834 8.90237 10.2929 9.29289L6.29289 13.2929C5.90237 13.6834 5.90237 14.3166 6.29289 14.7071C6.68342 15.0976 7.31658 15.0976 7.70711 14.7071L11 11.4142L13.2929 13.7071C13.6834 14.0976 14.3166 14.0976 14.7071 13.7071L18 10.4142Z"/>
  </symbol>
  <symbol id="icon-communications" viewBox="0 0 24 24">
    <path d="M3.74316 11.9824C3.74316 13.6846 4.58398 14.6963 6.15625 14.915L7.70801 18.333C8.10449 19.2148 8.6582 19.6455 9.48535 19.6455C10.5586 19.6455 11.3311 18.873 11.0986 17.6631L10.6201 15.1611C12.5547 15.5371 14.5029 16.2412 16.3008 17.2734C16.5469 18.0117 17.21 18.4902 18.0781 18.4902C19.1787 18.4902 19.9512 17.7178 19.9512 16.6104V6.28809C19.9512 5.18066 19.1787 4.4082 18.0781 4.4082C17.1895 4.4082 16.5127 4.91406 16.2803 5.68652C14.168 6.9375 11.4678 7.75781 9.31445 7.99023H6.81934C4.82324 7.99023 3.74316 9.03613 3.74316 10.9639V11.9824ZM17.4971 16.6104V6.28809C17.4971 5.94629 17.7295 5.70703 18.0781 5.70703C18.4199 5.70703 18.6523 5.94629 18.6523 6.28809V16.6104C18.6523 16.9521 18.4199 17.1914 18.0781 17.1914C17.7295 17.1914 17.4971 16.9521 17.4971 16.6104ZM9.52637 13.6914V9.25488C11.9258 8.96777 14.2021 8.28418 16.1982 7.16309V15.79C14.1611 14.6416 11.9053 13.9785 9.52637 13.6914ZM6.81934 13.6572C5.54785 13.6572 5.04199 13.1787 5.04199 11.9824V10.9639C5.04199 9.76758 5.54785 9.28906 6.81934 9.28906H8.22754V13.6572H6.81934ZM8.9248 17.9707L7.50293 14.9561H9.27344C9.29395 14.9561 9.32129 14.9629 9.34863 14.9629L9.90918 17.8271C9.98438 18.1895 9.7793 18.4219 9.47168 18.4219C9.19824 18.4219 9.06836 18.2783 8.9248 17.9707Z" />
  </symbol>
  <symbol id="icon-training" viewBox="0 0 24 24">
    <path d="M5.6499 18.8384H14.3242C16.3496 18.8384 17.5615 17.6597 17.5615 15.6426V14.4971L20.6992 17.1533C21.0312 17.4272 21.3965 17.6182 21.7368 17.6182C22.4673 17.6182 22.9487 17.0786 22.9487 16.3066V7.72363C22.9487 6.95166 22.4673 6.41211 21.7368 6.41211C21.3965 6.41211 21.0312 6.60303 20.6992 6.87695L17.5615 9.5332V8.396C17.5615 6.37061 16.3496 5.19189 14.3242 5.19189H5.6499C3.71582 5.19189 2.4126 6.37061 2.4126 8.396V15.6426C2.4126 17.6597 3.62451 18.8384 5.6499 18.8384ZM5.88232 17.5933C4.521 17.5933 3.74902 16.8877 3.74902 15.4434V8.58691C3.74902 7.15088 4.521 6.44531 5.88232 6.44531H14.0918C15.4448 6.44531 16.2251 7.15088 16.2251 8.58691V15.4434C16.2251 16.8877 15.4448 17.5933 14.0918 17.5933H5.88232ZM21.3218 16.0244L17.5615 12.9199V11.1104L21.3218 8.00586C21.3965 7.94775 21.4463 7.91455 21.521 7.91455C21.6206 7.91455 21.6621 7.98926 21.6621 8.10547V15.9248C21.6621 16.041 21.6206 16.124 21.521 16.124C21.4463 16.124 21.3965 16.0742 21.3218 16.0244Z"/>
  </symbol>
</svg>